<?xml version="1.0" encoding="UTF-8"?>
<svg version="1.1" xmlns="http://www.w3.org/2000/svg" width="500" height="500">
<path d="M0 0 C0.97066406 -0.00257813 1.94132812 -0.00515625 2.94140625 -0.0078125 C5.4375 0.125 5.4375 0.125 7.4375 1.125 C7.8515625 3.19140625 7.8515625 3.19140625 8.0625 5.6875 C8.13726562 6.51378906 8.21203125 7.34007812 8.2890625 8.19140625 C8.33804688 8.82949219 8.38703125 9.46757812 8.4375 10.125 C9.05625 9.3825 9.675 8.64 10.3125 7.875 C17.17448955 0.95402487 27.65881243 -0.11486431 36.875 -0.1875 C47.29596533 -0.22988079 56.58807252 1.15502848 65.4375 7.125 C69.87119996 12.91344162 70.5413052 16.91043234 70.75390625 24.078125 C70.77468735 24.73834656 70.79546844 25.39856812 70.81687927 26.07879639 C70.88200147 28.17743015 70.94108502 30.27618372 71 32.375 C71.04322079 33.80209547 71.0868362 35.22917905 71.13085938 36.65625 C71.23764411 40.14570722 71.33901566 43.63529753 71.4375 47.125 C73.7475 47.785 76.0575 48.445 78.4375 49.125 C78.4375 53.415 78.4375 57.705 78.4375 62.125 C71.99380211 65.72148254 65.71401483 65.95942155 58.4375 65.125 C54.33468394 63.7659023 51.02547601 61.51698401 47.4375 59.125 C46.76203125 59.47433594 46.0865625 59.82367188 45.390625 60.18359375 C44.05257812 60.86615234 44.05257812 60.86615234 42.6875 61.5625 C41.80578125 62.01496094 40.9240625 62.46742188 40.015625 62.93359375 C32.50030254 66.40658367 21.77119968 66.56168553 13.875 64.0625 C9.34833456 61.51110675 5.44232327 58.22472755 3.79296875 53.13671875 C2.65664219 46.70585966 3.14195545 40.80981435 6.4375 35.125 C12.48049256 27.68876193 21.35386612 26.18459674 30.4375 25.125 C33.08261313 25.05984943 35.72918825 25.03908574 38.375 25.0625 C39.40077148 25.06926758 39.40077148 25.06926758 40.44726562 25.07617188 C42.11071604 25.0878044 43.7741205 25.10573306 45.4375 25.125 C44.66719878 21.63690809 44.66719878 21.63690809 43.4375 18.125 C39.90755387 16.94835129 37.14294587 16.92649397 33.4375 17.125 C30.18900023 18.84726496 30.18900023 18.84726496 29.4375 22.125 C28.43372314 22.14481934 27.42994629 22.16463867 26.39575195 22.18505859 C22.65885034 22.26133749 18.92232683 22.35001986 15.18579102 22.44238281 C13.5709583 22.48058072 11.95604316 22.51544945 10.34106445 22.546875 C8.01483783 22.59272609 5.68917408 22.65068584 3.36328125 22.7109375 C2.28642815 22.72826431 2.28642815 22.72826431 1.18782043 22.74594116 C-2.79876065 22.86237344 -6.00137005 23.28123821 -9.5625 25.125 C-12.08695846 28.45480717 -11.96583638 32.18616695 -12.1875 36.25 C-12.22617187 36.93779541 -12.26484375 37.62559082 -12.3046875 38.33422852 C-12.62464579 44.70411248 -12.62377064 51.07173889 -12.52587891 57.44775391 C-12.50366557 59.34007827 -12.52844559 61.23285169 -12.5625 63.125 C-13.5625 64.125 -13.5625 64.125 -15.87915039 64.23852539 C-16.87938232 64.23328857 -17.87961426 64.22805176 -18.91015625 64.22265625 C-19.98974609 64.21943359 -21.06933594 64.21621094 -22.18164062 64.21289062 C-23.31794922 64.20451172 -24.45425781 64.19613281 -25.625 64.1875 C-26.76517578 64.18298828 -27.90535156 64.17847656 -29.08007812 64.17382812 C-31.90760351 64.16199747 -34.7350264 64.1455141 -37.5625 64.125 C-37.58562737 56.05847826 -37.60341709 47.99197028 -37.61431217 39.92542362 C-37.61954014 36.18016963 -37.62663622 32.43493824 -37.63793945 28.68969727 C-37.64877141 25.07818313 -37.65477749 21.46669079 -37.65737724 17.85516167 C-37.65923094 16.47439671 -37.66285049 15.093633 -37.66823006 13.71287727 C-37.67544447 11.78524048 -37.67590809 9.85758193 -37.67602539 7.92993164 C-37.678246 6.83072891 -37.68046661 5.73152618 -37.68275452 4.59901428 C-37.5625 2.125 -37.5625 2.125 -36.5625 1.125 C-33.57231839 0.99832236 -30.61555892 0.93979162 -27.625 0.9375 C-26.78775391 0.92525391 -25.95050781 0.91300781 -25.08789062 0.90039062 C-23.88616211 0.89749023 -23.88616211 0.89749023 -22.66015625 0.89453125 C-21.92289307 0.89042236 -21.18562988 0.88631348 -20.42602539 0.88208008 C-18.5625 1.125 -18.5625 1.125 -16.5625 3.125 C-15.9375 5.25 -15.9375 5.25 -15.5625 7.125 C-15.09199219 6.70347656 -14.62148438 6.28195313 -14.13671875 5.84765625 C-13.51410156 5.29980469 -12.89148438 4.75195312 -12.25 4.1875 C-11.63511719 3.64222656 -11.02023437 3.09695312 -10.38671875 2.53515625 C-7.06482078 -0.0327349 -4.0477299 -0.01077957 0 0 Z M29.68359375 40.5390625 C28.21237661 42.129631 28.21237661 42.129631 28.125 44.6875 C28.20783253 47.30296419 28.20783253 47.30296419 30.4375 49.125 C35.16027155 49.84386434 39.24406419 49.69784919 43.5625 47.625 C46.28607317 43.9935691 45.80954773 41.58957279 45.4375 37.125 C40.31575616 36.79456491 33.79439035 37.22478996 29.68359375 40.5390625 Z " fill="#D84B2C" transform="translate(306.5625,202.875)"/>
<path d="M0 0 C1.08628693 0.00303635 1.08628693 0.00303635 2.19451904 0.00613403 C3.3334964 0.00350555 3.3334964 0.00350555 4.4954834 0.00082397 C7.0175807 -0.00359473 9.53960847 -0.00065649 12.06170654 0.00271606 C13.80666111 0.00204303 15.55161558 0.00107301 17.29656982 -0.00018311 C20.95852549 -0.0016601 24.62045682 0.00049454 28.28240967 0.00515747 C32.98715147 0.01085476 37.69183622 0.00757577 42.39657593 0.00158501 C46.00124546 -0.00202055 49.60590136 -0.00088204 53.21057129 0.0017128 C54.94580085 0.00238208 56.68103163 0.0015536 58.41625977 -0.00076675 C60.83717142 -0.0032932 63.25798941 0.00054718 65.67889404 0.00613403 C66.40308533 0.0041098 67.12727661 0.00208557 67.87341309 0 C72.82244388 0.0212659 72.82244388 0.0212659 73.93670654 1.13552856 C74.02340086 2.62424716 74.04374148 4.11697356 74.03436279 5.60818481 C74.02952881 6.95686646 74.02952881 6.95686646 74.02459717 8.33279419 C74.01202881 9.75108521 74.01202881 9.75108521 73.99920654 11.19802856 C73.99469482 12.1474231 73.99018311 13.09681763 73.98553467 14.07498169 C73.97370765 16.42855922 73.9572268 18.78201334 73.93670654 21.13552856 C71.32719419 22.44028474 69.40969369 22.24854429 66.49139404 22.23318481 C65.41502686 22.22996216 64.33865967 22.2267395 63.22967529 22.22341919 C62.10174561 22.21504028 60.97381592 22.20666138 59.81170654 22.19802856 C58.10821045 22.19126099 58.10821045 22.19126099 56.37030029 22.18435669 C53.55905016 22.17254471 50.74790424 22.15607363 47.93670654 22.13552856 C47.93892715 22.85993637 47.94114777 23.58434418 47.94343567 24.33070374 C47.96343882 31.1439631 47.9786808 37.95721809 47.98851871 44.77049923 C47.99374643 48.27361741 48.00084205 51.77671141 48.012146 55.27981567 C48.0250486 59.30333697 48.02993566 63.32683271 48.03436279 67.35037231 C48.03952408 68.61389023 48.04468536 69.87740814 48.05000305 71.17921448 C48.05007858 72.34034256 48.05015411 73.50147064 48.05023193 74.69778442 C48.05245255 75.72592758 48.05467316 76.75407074 48.05696106 77.81336975 C47.93670654 80.13552856 47.93670654 80.13552856 46.93670654 81.13552856 C45.02212372 81.23524642 43.10388337 81.26633445 41.18670654 81.26834106 C40.02139404 81.26963013 38.85608154 81.27091919 37.65545654 81.27224731 C36.42826904 81.26838013 35.20108154 81.26451294 33.93670654 81.26052856 C32.09592529 81.26632935 32.09592529 81.26632935 30.21795654 81.27224731 C29.05264404 81.27095825 27.88733154 81.26966919 26.68670654 81.26834106 C25.60905029 81.26721313 24.53139404 81.26608521 23.42108154 81.2649231 C20.93670654 81.13552856 20.93670654 81.13552856 19.93670654 80.13552856 C19.8430003 78.35560933 19.81926383 76.57196117 19.82318115 74.7895813 C19.82325668 73.64847397 19.82333221 72.50736664 19.82341003 71.3316803 C19.82857132 70.09003616 19.8337326 68.84839203 19.83905029 67.56912231 C19.84046524 66.3053627 19.84188019 65.04160309 19.84333801 63.73954773 C19.84800072 60.37427967 19.85699174 57.00907867 19.86804199 53.64382935 C19.87825808 50.21203187 19.88283606 46.78022748 19.88787842 43.34841919 C19.89893274 36.61077032 19.91568944 29.87315332 19.93670654 23.13552856 C19.18461914 23.11047241 18.43253174 23.08541626 17.65765381 23.05960083 C14.27131458 22.94402343 10.88528041 22.82112512 7.49920654 22.69802856 C6.31520264 22.65871216 5.13119873 22.61939575 3.91131592 22.57888794 C2.78660889 22.53699341 1.66190186 22.49509888 0.50311279 22.45193481 C-0.53901367 22.4152771 -1.58114014 22.37861938 -2.65484619 22.34085083 C-5.06329346 22.13552856 -5.06329346 22.13552856 -6.06329346 21.13552856 C-6.16210143 19.65900192 -6.19408591 18.17785621 -6.19610596 16.69802856 C-6.19739502 15.80341919 -6.19868408 14.90880981 -6.20001221 13.98709106 C-6.19421143 12.57556763 -6.19421143 12.57556763 -6.18829346 11.13552856 C-6.19216064 10.19451294 -6.19602783 9.25349731 -6.20001221 8.28396606 C-6.19872314 7.38935669 -6.19743408 6.49474731 -6.19610596 5.57302856 C-6.19441406 4.33359497 -6.19441406 4.33359497 -6.19268799 3.06912231 C-5.92738636 -0.89538498 -3.3732053 0.01449461 0 0 Z " fill="#D74B2C" transform="translate(123.06329345703125,185.86447143554688)"/>
<path d="M0 0 C0.74765625 0.00563965 1.4953125 0.0112793 2.265625 0.01708984 C12.75024585 0.24649771 21.75326028 3.27467006 29.25390625 10.90625 C35.48773968 18.7962362 36.59474704 28.57219499 35.6875 38.3125 C34.31092175 46.90464257 31.4264235 53.748385 24.35546875 59.06640625 C13.36714633 66.07125081 0.8728305 66.95422197 -11.765625 64.6953125 C-19.71819129 62.39110739 -26.14850852 58.1639536 -30.71875 51.15625 C-35.53673431 41.93325147 -36.09165217 29.34238893 -33.3125 19.3125 C-30.31656914 12.0688174 -24.55790672 6.27923784 -17.46484375 3.06640625 C-11.49752211 0.97621918 -6.27886991 -0.0496746 0 0 Z M-8.3125 20.3125 C-10.14895546 24.71742464 -10.60937055 28.56114704 -10.625 33.3125 C-10.64175781 34.488125 -10.65851563 35.66375 -10.67578125 36.875 C-10.2756046 40.66161776 -9.26239748 43.06426783 -7.3125 46.3125 C-3.96379014 48.94362918 -0.43261936 48.67391398 3.6875 48.3125 C7.2261994 46.66110695 8.49820153 45.59644771 10.6875 42.3125 C11.11006927 39.36841296 11.0118094 36.40874511 11 33.4375 C11.01611328 32.63441406 11.03222656 31.83132812 11.04882812 31.00390625 C11.05272508 26.27300845 10.73217869 23.16510325 7.6875 19.3125 C2.74725278 15.60731459 -3.78316575 16.4302135 -8.3125 20.3125 Z " fill="#D84A2C" transform="translate(230.3125,202.6875)"/>
<path d="M0 0 C1.48831242 0.00667405 2.97660807 0.01863442 4.46484375 0.03515625 C5.22345703 0.03966797 5.98207031 0.04417969 6.76367188 0.04882812 C8.64326246 0.06064945 10.52281274 0.07858547 12.40234375 0.09765625 C12.40234375 0.42765625 12.40234375 0.75765625 12.40234375 1.09765625 C7.45234375 1.09765625 2.50234375 1.09765625 -2.59765625 1.09765625 C-2.59765625 20.89765625 -2.59765625 40.69765625 -2.59765625 61.09765625 C4.33234375 61.09765625 11.26234375 61.09765625 18.40234375 61.09765625 C18.40234375 60.10765625 18.40234375 59.11765625 18.40234375 58.09765625 C19.06234375 58.09765625 19.72234375 58.09765625 20.40234375 58.09765625 C20.07234375 59.74765625 19.74234375 61.39765625 19.40234375 63.09765625 C11.48234375 63.09765625 3.56234375 63.09765625 -4.59765625 63.09765625 C-4.62021074 55.03113035 -4.63857334 46.96462879 -4.64946842 38.89807987 C-4.65469639 35.15282588 -4.66179247 31.40759449 -4.6730957 27.66235352 C-4.68392766 24.05083938 -4.68993374 20.43934704 -4.69253349 16.82781792 C-4.69438719 15.44705296 -4.69800674 14.06628925 -4.70338631 12.68553352 C-4.71060072 10.75789673 -4.71106434 8.83023818 -4.71118164 6.90258789 C-4.71340225 5.80338516 -4.71562286 4.70418243 -4.71791077 3.57167053 C-4.52665052 -0.36315538 -4.10037738 0.11130232 0 0 Z " fill="#BD533C" transform="translate(273.59765625,203.90234375)"/>
<path d="M0 0 C2.97 0.495 2.97 0.495 6 1 C8 6.625 8 6.625 8 10 C8.94875 9.79375 9.8975 9.5875 10.875 9.375 C11.90625 9.25125 12.9375 9.1275 14 9 C14.66 9.66 15.32 10.32 16 11 C18.06874034 11.6425235 18.06874034 11.6425235 20 12 C20 12.66 20 13.32 20 14 C19.030625 13.979375 18.06125 13.95875 17.0625 13.9375 C14.12534105 13.64381501 14.12534105 13.64381501 13 15 C13.62648437 15.12117188 14.25296875 15.24234375 14.8984375 15.3671875 C16.12433594 15.61855469 16.12433594 15.61855469 17.375 15.875 C18.59316406 16.11863281 18.59316406 16.11863281 19.8359375 16.3671875 C22 17 22 17 24 19 C14.41732433 18.20144369 8.91130485 14.45596925 2.56640625 7.31640625 C0.88039807 4.82313231 0.37096249 2.96247507 0 0 Z " fill="#CE4F37" transform="translate(198,248)"/>
<path d="M0 0 C0.33 0 0.66 0 1 0 C1.02464513 6.1055471 1.04283371 12.21106551 1.05493164 18.31665039 C1.05997288 20.39543156 1.06680574 22.47420916 1.07543945 24.55297852 C1.08751422 27.53402586 1.09323024 30.51502649 1.09765625 33.49609375 C1.10281754 34.43150497 1.10797882 35.3669162 1.11329651 36.33067322 C1.11340981 37.62189842 1.11340981 37.62189842 1.11352539 38.93920898 C1.115746 39.70087875 1.11796661 40.46254852 1.12025452 41.24729919 C1 43 1 43 0 44 C-1.92667507 44.08748207 -3.85651861 44.10697334 -5.78515625 44.09765625 C-7.53989258 44.09282227 -7.53989258 44.09282227 -9.33007812 44.08789062 C-11.17762695 44.07532227 -11.17762695 44.07532227 -13.0625 44.0625 C-14.91584961 44.05573242 -14.91584961 44.05573242 -16.80664062 44.04882812 C-19.87114117 44.03699608 -22.93554721 44.02051173 -26 44 C-22 42 -22 42 -1 42 C-0.67 28.14 -0.34 14.28 0 0 Z " fill="#AD5B4C" transform="translate(170,223)"/>
<path d="M0 0 C1.32 0.33 2.64 0.66 4 1 C3.01 1.66 2.02 2.32 1 3 C0.67 3.99 0.34 4.98 0 6 C-12.21 6.33 -24.42 6.66 -37 7 C-36.67 6.01 -36.34 5.02 -36 4 C-24.45 4 -12.9 4 -1 4 C-0.67 2.68 -0.34 1.36 0 0 Z " fill="#BF553C" transform="translate(336,219)"/>
<path d="M0 0 C0.98484375 0.01804688 1.9696875 0.03609375 2.984375 0.0546875 C4.10585938 0.08949219 4.10585938 0.08949219 5.25 0.125 C5.25 0.455 5.25 0.785 5.25 1.125 C4.26257813 1.31835938 3.27515625 1.51171875 2.2578125 1.7109375 C0.97648437 1.97132813 -0.30484375 2.23171875 -1.625 2.5 C-2.90117187 2.75523437 -4.17734375 3.01046875 -5.4921875 3.2734375 C-8.80924456 3.84737896 -8.80924456 3.84737896 -10.75 6.125 C-11.0000773 8.66690002 -11.0000773 8.66690002 -10.75 11.125 C-9.11069007 12.76430993 -7.25256326 12.33501367 -5 12.375 C-0.76207937 12.35071392 1.8492993 11.84556056 5.25 9.125 C4.0641763 12.50003669 2.97426311 14.77222731 0.25 17.125 C0.25 16.465 0.25 15.805 0.25 15.125 C-2.06 15.455 -4.37 15.785 -6.75 16.125 C-6.75 15.465 -6.75 14.805 -6.75 14.125 C-7.74 14.455 -8.73 14.785 -9.75 15.125 C-12.21694247 13.04351729 -13.60643482 11.84282589 -14.25 8.625 C-13.58958768 5.3229384 -12.34715956 4.21715631 -9.75 2.125 C-6.42450996 0.06115421 -3.88073945 -0.09239856 0 0 Z " fill="#C0543E" transform="translate(346.75,238.875)"/>
<path d="M0 0 C1 3 1 3 0.28515625 5.05078125 C-3.55590759 12.15613577 -8.55119951 16.77367324 -16 20 C-19.25 20.125 -19.25 20.125 -22 20 C-21.443125 19.731875 -20.88625 19.46375 -20.3125 19.1875 C-17.91066602 17.99300335 -17.91066602 17.99300335 -15.375 16.375 C-13 15 -13 15 -11 15 C-11 14.34 -11 13.68 -11 13 C-8 11 -8 11 -5 11 C-5 9.68 -5 8.36 -5 7 C-4.34 7 -3.68 7 -3 7 C-3 6.34 -3 5.68 -3 5 C-2.34 5 -1.68 5 -1 5 C-0.67 3.35 -0.34 1.7 0 0 Z " fill="#C0583E" transform="translate(263,246)"/>
<path d="M0 0 C0.33 0 0.66 0 1 0 C1 1.65 1 3.3 1 5 C-1.50497004 6.25248502 -3.20853274 6.11374406 -6.0078125 6.09765625 C-6.99394531 6.09443359 -7.98007813 6.09121094 -8.99609375 6.08789062 C-10.02863281 6.07951172 -11.06117188 6.07113281 -12.125 6.0625 C-13.68541016 6.05573242 -13.68541016 6.05573242 -15.27734375 6.04882812 C-17.85161962 6.03701952 -20.42578146 6.02055075 -23 6 C-18.93051131 3.71190227 -15.31891048 3.77006036 -10.75 3.875 C-10.00492188 3.88402344 -9.25984375 3.89304688 -8.4921875 3.90234375 C-6.66131941 3.92581642 -4.83061762 3.96168475 -3 4 C-2.67 3.34 -2.34 2.68 -2 2 C-1.34 1.34 -0.68 0.68 0 0 Z " fill="#CF5238" transform="translate(196,202)"/>
<path d="M0 0 C0.66 0 1.32 0 2 0 C1.67 1.65 1.34 3.3 1 5 C-5.93 5 -12.86 5 -20 5 C-20 4.34 -20 3.68 -20 3 C-13.4 3 -6.8 3 0 3 C0 2.01 0 1.02 0 0 Z " fill="#C05540" transform="translate(292,262)"/>
<path d="M0 0 C1.46761039 3.81578701 0.4801051 6.29973724 -1 10 C-1.33 10.33 -1.66 10.66 -2 11 C-2.23527773 13.34987262 -2.41386417 15.70556039 -2.5625 18.0625 C-2.64628906 19.35285156 -2.73007813 20.64320313 -2.81640625 21.97265625 C-2.87699219 22.97167969 -2.93757812 23.97070312 -3 25 C-2.34 25 -1.68 25 -1 25 C-1.33 26.98 -1.66 28.96 -2 31 C-4.51512237 27.18222462 -4.34366456 23.22348389 -4.3125 18.8125 C-4.31048584 18.05453125 -4.30847168 17.2965625 -4.30639648 16.515625 C-4.20942362 11.0990808 -4.08366498 4.08366498 0 0 Z " fill="#C1543A" transform="translate(200,217)"/>
<path d="M0 0 C6.625 -0.25 6.625 -0.25 10 2 C10.6875 4.125 10.6875 4.125 11 6 C9 5 7 4 5 3 C3.32580562 3.9873454 1.65948148 4.98812105 0 6 C-0.99 6 -1.98 6 -3 6 C-2 4 -1 2 0 0 Z " fill="#CF4C30" transform="translate(349,259)"/>
<path d="M0 0 C0 0.33 0 0.66 0 1 C-0.61488281 1.10957031 -1.22976562 1.21914062 -1.86328125 1.33203125 C-2.67152344 1.49058594 -3.47976562 1.64914063 -4.3125 1.8125 C-5.51326172 2.03873047 -5.51326172 2.03873047 -6.73828125 2.26953125 C-9.29039274 3.09378833 -10.35316788 3.90725641 -12 6 C-12.33 6.99 -12.66 7.98 -13 9 C-13.66 9 -14.32 9 -15 9 C-15.36407767 4.50970874 -15.36407767 4.50970874 -13.75 2.25 C-9.58751601 -0.72320285 -4.91728421 -0.08195474 0 0 Z " fill="#C0523B" transform="translate(234,219)"/>
<path d="M0 0 C0.99 0.495 0.99 0.495 2 1 C2.625 3.0625 2.625 3.0625 3 5 C4.32 3.68 5.64 2.36 7 1 C7.66 1.33 8.32 1.66 9 2 C8.34 2.66 7.68 3.32 7 4 C6.29289322 5.64991582 5.62056011 7.31562256 5 9 C3.68 9 2.36 9 1 9 C0.67 6.03 0.34 3.06 0 0 Z " fill="#C75139" transform="translate(288,205)"/>
<path d="M0 0 C0.33 0.66 0.66 1.32 1 2 C-0.98 4.97 -0.98 4.97 -3 8 C-3.33 7.34 -3.66 6.68 -4 6 C-6.31 6.33 -8.62 6.66 -11 7 C-11 6.34 -11 5.68 -11 5 C-10.37351562 4.80664062 -9.74703125 4.61328125 -9.1015625 4.4140625 C-8.28429687 4.15367187 -7.46703125 3.89328125 -6.625 3.625 C-5.81289063 3.36976563 -5.00078125 3.11453125 -4.1640625 2.8515625 C-1.83540815 2.10145717 -1.83540815 2.10145717 0 0 Z " fill="#CA5134" transform="translate(351,248)"/>
<path d="M0 0 C-0.46019531 0.37769531 -0.92039062 0.75539062 -1.39453125 1.14453125 C-3.46204389 3.53399233 -3.93306593 5.63383827 -4.6875 8.6875 C-5.06455078 10.17830078 -5.06455078 10.17830078 -5.44921875 11.69921875 C-5.63097656 12.45847656 -5.81273437 13.21773437 -6 14 C-6.66 12.68 -7.32 11.36 -8 10 C-7.34 10 -6.68 10 -6 10 C-6 6.7 -6 3.4 -6 0 C-3 -1 -3 -1 0 0 Z " fill="#C75539" transform="translate(299,227)"/>
<path d="M0 0 C1.64666203 0.1135629 3.29236082 0.24117381 4.9375 0.375 C5.85402344 0.44460937 6.77054688 0.51421875 7.71484375 0.5859375 C8.84599609 0.79089844 8.84599609 0.79089844 10 1 C10.33 1.66 10.66 2.32 11 3 C9.6875 4.5 9.6875 4.5 8 6 C7.01 6 6.02 6 5 6 C5 5.01 5 4.02 5 3 C2.525 2.01 2.525 2.01 0 1 C0 0.67 0 0.34 0 0 Z " fill="#CA5239" transform="translate(224,250)"/>
<path d="M0 0 C1.9375 0.75 1.9375 0.75 4 2 C4.75 4.125 4.75 4.125 5 6 C2.33333333 4.66666667 -0.33333333 3.33333333 -3 2 C-2.01 1.34 -1.02 0.68 0 0 Z " fill="#C95339" transform="translate(355,259)"/>
<path d="M0 0 C0.33 0 0.66 0 1 0 C1 1.65 1 3.3 1 5 C-1.31 5.33 -3.62 5.66 -6 6 C-5.01 5.67 -4.02 5.34 -3 5 C-2.67 4.01 -2.34 3.02 -2 2 C-1.34 1.34 -0.68 0.68 0 0 Z " fill="#B75A49" transform="translate(196,202)"/>
<path d="M0 0 C0 0.66 0 1.32 0 2 C-3.4019487 4.09350689 -6.05272412 4.17942163 -10 4 C-8.66666667 3.33333333 -7.33333333 2.66666667 -6 2 C-5.29875 1.62875 -4.5975 1.2575 -3.875 0.875 C-2 0 -2 0 0 0 Z " fill="#C75444" transform="translate(251,262)"/>
</svg>
