<?xml version="1.0" encoding="UTF-8"?>
<svg version="1.1" xmlns="http://www.w3.org/2000/svg" width="512" height="512">
<path d="M0 0 C1.13824219 -0.03996094 2.27648437 -0.07992188 3.44921875 -0.12109375 C13.24514761 1.29530446 19.883845 7.28522401 26.60134888 14.12507629 C27.47968978 14.99914507 28.35803068 15.87321385 29.26298797 16.77376956 C31.67815711 19.18216617 34.08168725 21.60117046 36.48081303 24.02548492 C39.07823502 26.64461567 41.69021285 29.24916199 44.30039978 31.8555603 C48.81398718 36.36653327 53.31837128 40.886528 57.81653214 45.41288185 C64.32001591 51.95710059 70.83735729 58.48737445 77.35810064 65.01439031 C87.93865119 75.60586838 98.50800103 86.20845052 109.0703125 96.81811523 C119.32712743 107.12086572 129.58921081 117.41832145 139.85839844 127.70874023 C140.49200126 128.34365667 141.12560408 128.97857312 141.77840699 129.63272945 C144.9572216 132.81806951 148.13613979 136.00330618 151.31510949 139.18849146 C177.66365096 165.58881789 203.99401837 192.00720851 230.3125 218.4375 C233.494387 217.03219716 235.62516234 215.37035752 238.07202339 212.91010571 C238.80881706 212.17421064 239.54561074 211.43831557 240.30473149 210.68012065 C241.10724902 209.86836684 241.90976654 209.05661303 242.73660278 208.22026062 C243.59459437 207.36045005 244.45258596 206.50063948 245.3365773 205.61477405 C247.71760659 203.22677946 250.09405657 200.83438561 252.46874285 198.44009316 C255.03097077 195.85895665 257.59904439 193.28364876 260.16651917 190.70773315 C264.6159884 186.24224927 269.0620532 181.77339914 273.50610733 177.30252647 C280.53397659 170.23273879 287.5716367 163.17274275 294.61080933 156.11421204 C297.01961749 153.69852375 299.42834955 151.28275959 301.83704948 148.86696339 C302.43903285 148.26320837 303.04101622 147.65945334 303.66124151 147.03740272 C310.51394243 140.16420517 317.36431013 133.28868399 324.21386719 126.41235352 C324.84000179 125.78377635 325.4661364 125.15519919 326.11124478 124.50757424 C336.25138844 114.32744822 346.38557681 104.14140868 356.51845516 93.95405187 C366.92594278 83.49109226 377.34307904 73.0378028 387.76834285 62.59255534 C394.19567622 56.15216051 400.61490991 49.70389975 407.02388732 43.24523733 C411.4199339 38.81642117 415.82506243 34.39677512 420.23736496 29.98415454 C422.78072899 27.44002557 425.31986384 24.89202648 427.84806633 22.3328228 C430.59397319 19.55343671 433.35923383 16.79382392 436.12649536 14.03569031 C436.91562856 13.23062866 437.70476176 12.42556702 438.51780808 11.59610957 C444.45281653 5.72989625 450.65703316 1.27587856 459 -0.2265625 C466.76478479 -0.13499664 473.01423184 0.62117729 479.3125 5.4375 C484.92529168 11.23738473 487.59564107 17.01661606 487.75 25.125 C487.78996094 26.26324219 487.82992187 27.40148437 487.87109375 28.57421875 C486.45469554 38.37014761 480.46477599 45.008845 473.62492371 51.72634888 C472.31382054 53.04386023 472.31382054 53.04386023 470.97623044 54.38798797 C468.56783383 56.80315711 466.14882954 59.20668725 463.72451508 61.60581303 C461.10538433 64.20323502 458.50083801 66.81521285 455.8944397 69.42539978 C451.38346673 73.93898718 446.863472 78.44337128 442.33711815 82.94153214 C435.79289941 89.44501591 429.26262555 95.96235729 422.73560969 102.48310064 C412.14413162 113.06365119 401.54154948 123.63300103 390.93188477 134.1953125 C380.62913428 144.45212743 370.33167855 154.71421081 360.04125977 164.98339844 C359.40634333 165.61700126 358.77142688 166.25060408 358.11727055 166.90340699 C354.93193049 170.0822216 351.74669382 173.26113979 348.56150854 176.44010949 C322.16118211 202.78865096 295.74279149 229.11901837 269.3125 255.4375 C270.71780284 258.619387 272.37964248 260.75016234 274.83989429 263.19702339 C275.57578936 263.93381706 276.31168443 264.67061074 277.06987935 265.42973149 C277.88163316 266.23224902 278.69338697 267.03476654 279.52973938 267.86160278 C280.38954995 268.71959437 281.24936052 269.57758596 282.13522595 270.4615773 C284.52322054 272.84260659 286.91561439 275.21905657 289.30990684 277.59374285 C291.89104335 280.15597077 294.46635124 282.72404439 297.04226685 285.29151917 C301.50775073 289.7409884 305.97660086 294.1870532 310.44747353 298.63110733 C317.51726121 305.65897659 324.57725725 312.6966367 331.63578796 319.73580933 C334.05147625 322.14461749 336.46724041 324.55334955 338.88303661 326.96204948 C339.48679163 327.56403285 340.09054666 328.16601622 340.71259728 328.78624151 C347.58579483 335.63894243 354.46131601 342.48931013 361.33764648 349.33886719 C362.28051223 350.2780691 362.28051223 350.2780691 363.24242576 351.23624478 C373.42255178 361.37638844 383.60859132 371.51057681 393.79594813 381.64345516 C404.25890774 392.05094278 414.7121972 402.46807904 425.15744466 412.89334285 C431.59783949 419.32067622 438.04610025 425.73990991 444.50476267 432.14888732 C448.93357883 436.5449339 453.35322488 440.95006243 457.76584546 445.36236496 C460.30997443 447.90572899 462.85797352 450.44486384 465.4171772 452.97306633 C468.19656329 455.71897319 470.95617608 458.48423383 473.71430969 461.25149536 C474.51937134 462.04062856 475.32443298 462.82976176 476.15389043 463.64280808 C482.02010375 469.57781653 486.47412144 475.78203316 487.9765625 484.125 C487.88499664 491.88978479 487.12882271 498.13923184 482.3125 504.4375 C476.51261527 510.05029168 470.73338394 512.72064107 462.625 512.875 C461.48675781 512.91496094 460.34851563 512.95492187 459.17578125 512.99609375 C449.37985239 511.57969554 442.741155 505.58977599 436.02365112 498.74992371 C435.14531022 497.87585493 434.26696932 497.00178615 433.36201203 496.10123044 C430.94684289 493.69283383 428.54331275 491.27382954 426.14418697 488.84951508 C423.54676498 486.23038433 420.93478715 483.62583801 418.32460022 481.0194397 C413.81101282 476.50846673 409.30662872 471.988472 404.80846786 467.46211815 C398.30498409 460.91789941 391.78764271 454.38762555 385.26689936 447.86060969 C374.68634881 437.26913162 364.11699897 426.66654948 353.5546875 416.05688477 C343.29787257 405.75413428 333.03578919 395.45667855 322.76660156 385.16625977 C322.13299874 384.53134333 321.49939592 383.89642688 320.84659301 383.24227055 C317.6677784 380.05693049 314.48886021 376.87169382 311.30989051 373.68650854 C284.96134904 347.28618211 258.63098163 320.86779149 232.3125 294.4375 C229.130613 295.84280284 226.99983766 297.50464248 224.55297661 299.96489429 C223.81618294 300.70078936 223.07938926 301.43668443 222.32026851 302.19487935 C221.11649222 303.41251007 221.11649222 303.41251007 219.88839722 304.65473938 C219.03040563 305.51454995 218.17241404 306.37436052 217.2884227 307.26022595 C214.90739341 309.64822054 212.53094343 312.04061439 210.15625715 314.43490684 C207.59402923 317.01604335 205.02595561 319.59135124 202.45848083 322.16726685 C198.0090116 326.63275073 193.5629468 331.10160086 189.11889267 335.57247353 C182.09102341 342.64226121 175.0533633 349.70225725 168.01419067 356.76078796 C165.60538251 359.17647625 163.19665045 361.59224041 160.78795052 364.00803661 C160.18596715 364.61179163 159.58398378 365.21554666 158.96375849 365.83759728 C152.11105757 372.71079483 145.26068987 379.58631601 138.41113281 386.46264648 C137.78499821 387.09122365 137.1588636 387.71980081 136.51375522 388.36742576 C126.37361156 398.54755178 116.23942319 408.73359132 106.10654484 418.92094813 C95.69905722 429.38390774 85.28192096 439.8371972 74.85665715 450.28244466 C68.42932378 456.72283949 62.01009009 463.17110025 55.60111268 469.62976267 C51.2050661 474.05857883 46.79993757 478.47822488 42.38763504 482.89084546 C39.84427101 485.43497443 37.30513616 487.98297352 34.77693367 490.5421772 C32.03102681 493.32156329 29.26576617 496.08117608 26.49850464 498.83930969 C25.70937144 499.64437134 24.92023824 500.44943298 24.10719192 501.27889043 C18.17218347 507.14510375 11.96796684 511.59912144 3.625 513.1015625 C-4.13978479 513.00999664 -10.38923184 512.25382271 -16.6875 507.4375 C-22.30029168 501.63761527 -24.97064107 495.85838394 -25.125 487.75 C-25.16496094 486.61175781 -25.20492188 485.47351563 -25.24609375 484.30078125 C-23.82969554 474.50485239 -17.83977599 467.866155 -10.99992371 461.14865112 C-10.12585493 460.27031022 -9.25178615 459.39196932 -8.35123044 458.48701203 C-5.94283383 456.07184289 -3.52382954 453.66831275 -1.09951508 451.26918697 C1.51961567 448.67176498 4.12416199 446.05978715 6.7305603 443.44960022 C11.24153327 438.93601282 15.761528 434.43162872 20.28788185 429.93346786 C26.83210059 423.42998409 33.36237445 416.91264271 39.88939031 410.39189936 C50.48086838 399.81134881 61.08345052 389.24199897 71.69311523 378.6796875 C81.99586572 368.42287257 92.29332145 358.16078919 102.58374023 347.89160156 C103.21865667 347.25799874 103.85357312 346.62439592 104.50772945 345.97159301 C107.69306951 342.7927784 110.87830618 339.61386021 114.06349146 336.43489051 C140.46381789 310.08634904 166.88220851 283.75598163 193.3125 257.4375 C191.90719716 254.255613 190.24535752 252.12483766 187.78510571 249.67797661 C187.04921064 248.94118294 186.31331557 248.20438926 185.55512065 247.44526851 C184.74336684 246.64275098 183.93161303 245.84023346 183.09526062 245.01339722 C182.23545005 244.15540563 181.37563948 243.29741404 180.48977405 242.4134227 C178.10177946 240.03239341 175.70938561 237.65594343 173.31509316 235.28125715 C170.73395665 232.71902923 168.15864876 230.15095561 165.58273315 227.58348083 C161.11724927 223.1340116 156.64839914 218.6879468 152.17752647 214.24389267 C145.10773879 207.21602341 138.04774275 200.1783633 130.98921204 193.13919067 C128.57352375 190.73038251 126.15775959 188.32165045 123.74196339 185.91295052 C123.13820837 185.31096715 122.53445334 184.70898378 121.91240272 184.08875849 C115.03920517 177.23605757 108.16368399 170.38568987 101.28735352 163.53613281 C100.65877635 162.90999821 100.03019919 162.2838636 99.38257424 161.63875522 C89.20244822 151.49861156 79.01640868 141.36442319 68.82905187 131.23154484 C58.36609226 120.82405722 47.9128028 110.40692096 37.46755534 99.98165715 C31.02716051 93.55432378 24.57889975 87.13509009 18.12023733 80.72611268 C13.69142117 76.3300661 9.27177512 71.92493757 4.85915454 67.51263504 C2.31502557 64.96927101 -0.23297352 62.43013616 -2.7921772 59.90193367 C-5.57156329 57.15602681 -8.33117608 54.39076617 -11.08930969 51.62350464 C-12.29690216 50.43980484 -12.29690216 50.43980484 -13.52889043 49.23219192 C-19.39510375 43.29718347 -23.84912144 37.09296684 -25.3515625 28.75 C-25.25999664 20.98521521 -24.50382271 14.73576816 -19.6875 8.4375 C-13.88761527 2.82470832 -8.10838394 0.15435893 0 0 Z " fill="#000000" transform="translate(24.6875,-0.4375)"/>
</svg>
